<svg xmlns="http://www.w3.org/2000/svg" viewBox="0 0 1583.54 1964.63"><defs><style>.cls-1,.cls-2{fill:none;}.cls-1{stroke:#fff;stroke-miterlimit:10;stroke-width:30px;}.cls-3{fill:#a87c4f;}.cls-4{font-size:149.78px;font-family:UTM-Avo, UTM Avo;}.cls-4,.cls-5{fill:#fff;}</style></defs><title>49S-white-logo-for-web</title><g id="Layer_2" data-name="Layer 2"><g id="Layer_1-2" data-name="Layer 1"><polyline class="cls-1" points="1531.46 1444.3 1532.14 1505.43 804.33 1947.31 57.74 1537.95 56.59 1435.56"/><polyline class="cls-1" points="49.36 792.57 45.22 423.82 773.03 16.97 1519.63 391.29 1524.18 796.9"/><path class="cls-2" d="M1054.06,561.91q3.78-3.78,7-7.75l-35.6,27.92A98.25,98.25,0,0,0,1054.06,561.91Z"/><path class="cls-2" d="M985.9,397.06q-39.64,0-68.16,28.53t-28.53,68.16a97.12,97.12,0,0,0,3.89,27.72l141.71-111.12Q1012.93,397.07,985.9,397.06Z"/><polygon class="cls-3" points="758.45 625.32 689.5 625.32 689.5 505.64 602.32 505.64 602.32 625.32 494.86 625.32 625.88 329.69 534.95 329.69 368.51 707.74 602.32 707.74 602.32 749.49 758.45 627.05 758.45 625.32"/><path class="cls-3" d="M889.21,493.75q0-39.62,28.53-68.16t68.16-28.53q27,0,48.9,13.29l69.59-54.57Q1057,319.4,985.9,319.39q-80.84,0-132.36,48.35T802,496.13q0,45.44,19.25,81.66l71.83-56.32A97.12,97.12,0,0,1,889.21,493.75Z"/><path class="cls-3" d="M1061.11,554.16q-3.28,4-7,7.75a98.25,98.25,0,0,1-28.56,20.16l-98.6,77.32a180.3,180.3,0,0,0,38.4,4,234.65,234.65,0,0,0,41.21-4L904.27,813.15l90.35,31.7,129.19-215.57q46-76.87,46-144.25,0-7.89-.7-15.54Z"/><text class="cls-4" transform="translate(622.82 1719.02)">2017</text><path class="cls-3" d="M864.88,1388.55c-22.27,12.47-45,24.93-63.51,42.78a122.71,122.71,0,0,0-24,31.74c-1.56,3-5.14,17.43-7.54,18.64-2.24,1.13-5.77-2.2-7.75-3.43-18.09-11.28-37.76-19.77-57.92-26.6-9.9-3.35-19.93-6.31-30-9.06-9.53-2.6-21-7.31-30.77-7.48,2.39,0,9.22,12.92,10.45,15.47,3.16,6.54,4.71,13.82,6.84,20.73,6.62,21.49,17.37,45.82,35.09,60.37a212.91,212.91,0,0,0,65.12,36.53c5.74,2,12.07,3.88,18.33,4.23a7.53,7.53,0,0,1-2.93-1.76c-2-1.93-3.18-4.51-4.35-7-9-19.39-19-38.47-32.1-55.41-12.86-16.66-32.86-37.38-53.71-43.7,22.34,6.77,38.95,18.78,54.8,35.83,8.1,8.71,15.89,20.54,21.45,31.06,2.77,5.24,7.73,10.05,10.29,15.36.88,1.82,9.95,15,9.5,15.88a312.14,312.14,0,0,0,14.58-33.25,279.83,279.83,0,0,1,14.79-32.54c10.83-20.71,22.38-39.14,38.16-56.17,6.16-6.65,12.29-13.34,18.64-19.81,5-5.08,12.2-9.65,16.41-15.24-14.33,18.85-31.9,35.14-45.41,54.59-13.15,18.94-22.15,40.43-29.83,62.17q-6.38,18-11.63,36.43c-.82,2.88-1.67,5.86-3.54,8.2a11.85,11.85,0,0,1-1.82,1.83,19.32,19.32,0,0,1-5.35,3,23.72,23.72,0,0,0,7.38-2.81c23.46-13.92,47.22-26.87,67.63-45.34,19.06-17.24,35.06-38.31,44-62.4C919.45,1425.7,916.91,1385,934,1351,908.71,1359.9,888,1375.59,864.88,1388.55Z"/><path class="cls-5" d="M0,1195.2,35.84,1163q33,35,75.75,34.62,23.62,0,39.51-7.74,21.58-9.77,21.59-30.55,0-22.39-42.76-29.73-70.87-12.22-79.42-15.48-42.76-16.28-42.76-61.09,0-37.47,35.84-58.65,30.13-18.33,70.05-18.33,63.54,0,101.82,39.1l-35,31.36q-31-30.54-69.24-30.55-20,0-34.62,7.33-19.15,9.37-19.14,27.29,0,22.4,42.76,29.32,69.64,11.41,79.42,15.07,42.76,16.7,42.76,61.91,0,41.14-37.47,65.16-31.77,20.37-75.35,20.36Q44.8,1242.45,0,1195.2Z"/><path class="cls-5" d="M367.77,1274.62v-33.8q-50.51-7.33-83.29-44.19t-32.79-87.36q0-57,39.85-95.1t97.2-38.08q57.34,0,97.19,38.08t39.86,95.1q0,50.51-32.79,87.36t-83.29,44.19v33.8Zm0-80.23v-40.32h41.95v40.32A87.63,87.63,0,0,0,457.57,1163a84.76,84.76,0,0,0,18.53-53.76q0-36.24-25.6-62.31t-61.76-26.07q-36.17,0-61.77,26.07t-25.59,62.31a87.71,87.71,0,0,0,66.39,85.12Z"/><path class="cls-5" d="M569.36,1132.89V981.38h47.24v141.32q0,31.37,17.11,52.54,18.73,22.4,49.28,22.4,30.95,0,49.28-22.4,17.11-20.77,17.11-52.54V981.38h47.24v151.51q0,48.06-32.58,78.81t-81,30.75q-48.06,0-80.84-31T569.36,1132.89Z"/><path class="cls-5" d="M1112.26,1237.15v-80.64h-30.55v-44.8h30.55V981.38H1234q40.72,0,66.39,23.62t25.66,63.94q0,27.29-16.7,48.06t-43.17,28.92l63.94,91.23h-59.46l-53.35-80.64H1159.5v80.64Zm47.24-211v85.53h70.87q20.77,0,34.62-11.2t13.85-31.56q0-20.77-13.64-31.77t-34.82-11Z"/><path class="cls-5" d="M1387.23,1237.15V1128.41h-30.55v-44.8h30.55V981.38h196.31v44.8H1434.48v57.43h103.86v44.8H1434.48v63.94h149.06v44.8Z"/><path class="cls-5" d="M898.66,1188l-19.79,48.36h-51l93.85-214.74M938.09,983l31.18-4,109,257.36H1027.1"/></g></g></svg>