<svg xmlns="http://www.w3.org/2000/svg" viewBox="0 0 2039.16 1340.03"><defs><style>.cls-1{fill:#fff;stroke:#fff;stroke-miterlimit:10;stroke-width:10px;}</style></defs><title>title-white</title><g id="Layer_2" data-name="Layer 2"><g id="Layer_1-2" data-name="Layer 1"><polygon class="cls-1" points="993.86 778.73 819.47 778.73 819.47 476.05 598.98 476.05 598.98 778.73 327.22 778.73 658.59 31.05 428.61 31.05 7.66 987.19 598.98 987.19 598.98 1107.94 993.86 798.3 993.86 778.73"/><path class="cls-1" d="M1324.58,446q0-100.2,72.16-172.38t172.38-72.16q75,0,134.32,40.45l174.88-137.13Q1756.15,5.13,1569.12,5q-204.46,0-334.75,122.27T1104.09,452q0,121.62,54.52,217.12l179.74-140.94Q1324.58,489.76,1324.58,446Z"/><path class="cls-1" d="M1760,598c-5.71,7-11.83,13.79-18.45,20.41q-33.52,33.53-73.14,51.41l-248.66,195a455.3,455.3,0,0,0,97.3,10.18q48.11,0,104.23-10l-258.58,388.87L1591.17,1334,1917.9,788.75q116.22-194.41,116.26-364.81,0-20.1-1.8-39.58Z"/></g></g></svg>