<svg xmlns="http://www.w3.org/2000/svg" viewBox="0 0 2026.49 1328.96"><defs><style>.cls-1{fill:#a87c4f;}</style></defs><title>Tỉtle-website</title><g id="Layer_2" data-name="Layer 2"><g id="Layer_1-2" data-name="Layer 1"><polygon class="cls-1" points="986.2 773.73 811.81 773.73 811.81 471.05 591.32 471.05 591.32 773.73 319.55 773.73 650.92 26.05 420.94 26.05 0 982.19 591.32 982.19 591.32 1102.94 986.2 793.3 986.2 773.73"/><path class="cls-1" d="M1316.91,441q0-100.2,72.16-172.38t172.38-72.16q75,0,134.32,40.45L1870.66,99.75Q1748.48.13,1561.46,0,1357,0,1226.71,122.27T1096.42,447q0,121.62,54.52,217.12l179.74-140.94Q1316.92,484.76,1316.91,441Z"/><path class="cls-1" d="M1752.29,593c-5.71,7-11.83,13.79-18.45,20.41q-33.52,33.53-73.14,51.41L1412,859.76a455.3,455.3,0,0,0,97.3,10.18q48.11,0,104.23-10L1355,1248.78,1583.51,1329l326.73-545.21q116.22-194.41,116.26-364.81,0-20.1-1.8-39.58Z"/></g></g></svg>